<?xml version="1.0" encoding="UTF-8"?>
<svg version="1.1" xmlns="http://www.w3.org/2000/svg" width="680" height="680">
<path d="M0 0 C2.23480095 1.92053206 4.33230962 3.78613206 6.25 6.0234375 C6.25 6.6834375 6.25 7.3434375 6.25 8.0234375 C6.91 8.0234375 7.57 8.0234375 8.25 8.0234375 C9.07275672 9.55965485 9.88272577 11.10272382 10.6875 12.6484375 C11.13996094 13.50695312 11.59242188 14.36546875 12.05859375 15.25 C16.02077713 24.47344328 15.65266586 38.41195384 12.29296875 47.78125 C8.02297976 56.9609267 1.70132971 63.97819382 -7.75 68.0234375 C-16.71868298 70.62156661 -25.81667221 71.02259782 -34.75 68.0234375 C-36.4 67.0334375 -38.05 66.0434375 -39.75 65.0234375 C-40.08 73.6034375 -40.41 82.1834375 -40.75 91.0234375 C-46.03 91.0234375 -51.31 91.0234375 -56.75 91.0234375 C-56.75 59.6734375 -56.75 28.3234375 -56.75 -3.9765625 C-51.8 -3.9765625 -46.85 -3.9765625 -41.75 -3.9765625 C-41.42 -2.9865625 -41.09 -1.9965625 -40.75 -0.9765625 C-40.09 -1.4303125 -39.43 -1.8840625 -38.75 -2.3515625 C-27.00322769 -8.7143975 -10.84568557 -7.79533651 0 0 Z M-38.75 13.0234375 C-41.98597066 17.87739349 -41.16074846 23.53831478 -41.17553711 29.21972656 C-41.18742412 31.3846183 -41.23659944 33.54664821 -41.28710938 35.7109375 C-41.29657566 37.09373614 -41.30380972 38.47655223 -41.30859375 39.859375 C-41.32204834 41.11282715 -41.33550293 42.3662793 -41.34936523 43.65771484 C-40.58965487 47.92385216 -39.05228639 49.3129184 -35.75 52.0234375 C-30.0550987 55.82003837 -23.92914624 55.54366143 -17.3125 54.4609375 C-10.98916531 51.90941648 -6.32759294 47.84437361 -3.25 41.7109375 C-0.65065135 34.87604305 -0.76126907 28.71196535 -3.6875 22.0234375 C-4.35646622 20.6807096 -5.04065109 19.34527643 -5.75 18.0234375 C-6.245 17.0334375 -6.245 17.0334375 -6.75 16.0234375 C-7.41 16.0234375 -8.07 16.0234375 -8.75 16.0234375 C-9.08 15.0334375 -9.41 14.0434375 -9.75 13.0234375 C-19.39028421 7.30430064 -29.08681108 7.56163507 -38.75 13.0234375 Z " fill="#000000" transform="translate(275.75,309.9765625)"/>
<path d="M0 0 C6.05622334 4.0857242 8.49099862 8.9690896 10.75 15.74609375 C10.84273907 17.47412506 10.87791707 19.20551773 10.87939453 20.93603516 C10.88254669 21.99368073 10.88569885 23.05132629 10.88894653 24.14102173 C10.8869223 25.28171112 10.88489807 26.42240051 10.8828125 27.59765625 C10.88376923 28.76743011 10.88472595 29.93720398 10.88571167 31.14242554 C10.88639245 33.61545872 10.88454525 36.08849369 10.88037109 38.56152344 C10.87501188 42.36267064 10.88032449 46.16370019 10.88671875 49.96484375 C10.88605814 52.36328151 10.88477733 54.7617192 10.8828125 57.16015625 C10.88483673 58.3048941 10.88686096 59.44963196 10.88894653 60.62905884 C10.88421829 62.20607071 10.88421829 62.20607071 10.87939453 63.81494141 C10.87859894 64.74521149 10.87780334 65.67548157 10.87698364 66.63394165 C10.75 68.74609375 10.75 68.74609375 9.75 69.74609375 C7.44098304 69.89788753 5.12632931 69.96790497 2.8125 69.99609375 C1.54535156 70.021875 0.27820313 70.04765625 -1.02734375 70.07421875 C-2.09082031 69.9659375 -3.15429688 69.85765625 -4.25 69.74609375 C-4.91 68.75609375 -5.57 67.76609375 -6.25 66.74609375 C-7.28125 67.38546875 -8.3125 68.02484375 -9.375 68.68359375 C-16.33420942 72.62250628 -24.81518598 72.71254918 -32.5 70.87109375 C-35.51097805 69.96780034 -38.37316578 69.00470872 -41.25 67.74609375 C-41.25 67.08609375 -41.25 66.42609375 -41.25 65.74609375 C-42.11625 65.46765625 -42.11625 65.46765625 -43 65.18359375 C-47.05804517 62.59095378 -48.75147318 58.24167421 -50.25 53.74609375 C-50.99101575 46.33593626 -50.40190753 40.05403635 -46.25 33.74609375 C-41.82644261 28.48945261 -35.94289012 25.13383755 -29.25 23.74609375 C-12.96394839 22.50811095 -12.96394839 22.50811095 -6.25 24.74609375 C-6.81893633 20.15536613 -7.39445836 16.72046062 -10.5 13.18359375 C-16.47305616 10.00674771 -24.94422758 10.77226647 -31.20703125 12.6171875 C-32.8470724 13.28844872 -34.47102728 14.00201509 -36.06640625 14.7734375 C-38.44555288 15.83320049 -40.68806899 16.31835483 -43.25 16.74609375 C-43.33097324 14.47584407 -43.38917704 12.204773 -43.4375 9.93359375 C-43.47230469 8.66902344 -43.50710938 7.40445312 -43.54296875 6.1015625 C-43.25 2.74609375 -43.25 2.74609375 -42.046875 0.8984375 C-39.85265676 -0.5087242 -37.82652756 -1.1908566 -35.3125 -1.87890625 C-34.45785156 -2.11867188 -33.60320313 -2.3584375 -32.72265625 -2.60546875 C-31.90667969 -2.81945312 -31.09070313 -3.0334375 -30.25 -3.25390625 C-29.62222656 -3.44210937 -28.99445312 -3.6303125 -28.34765625 -3.82421875 C-18.81922846 -5.77603822 -8.5051964 -4.73987508 0 0 Z M-30.25 40.74609375 C-30.889375 41.15859375 -31.52875 41.57109375 -32.1875 41.99609375 C-34.04334999 45.05278785 -33.86930538 48.33991418 -33.25 51.74609375 C-30.84580413 55.12977682 -28.21746466 56.63889431 -24.25 57.74609375 C-18.1106593 58.45447922 -13.53203794 56.69370759 -8.25 53.74609375 C-5.46220121 50.95829496 -5.95038267 49.12807048 -5.9375 45.24609375 C-5.92074219 44.08078125 -5.90398438 42.91546875 -5.88671875 41.71484375 C-6.00660156 40.73515625 -6.12648438 39.75546875 -6.25 38.74609375 C-13.34812204 34.01401239 -23.74320981 35.68525693 -30.25 40.74609375 Z " fill="#000000" transform="translate(638.25,308.25390625)"/>
<path d="M0 0 C6.37575983 7.08572436 6.33536827 14.1477395 6.1796875 23.23828125 C6.17402771 24.49213623 6.16836792 25.74599121 6.16253662 27.0378418 C6.14402388 30.34579501 6.10818774 33.6529459 6.0637207 36.96063232 C6.02255068 40.34605164 6.00447964 43.73158916 5.984375 47.1171875 C5.94039817 53.74123582 5.87141504 60.36460337 5.7890625 66.98828125 C0.8390625 66.98828125 -4.1109375 66.98828125 -9.2109375 66.98828125 C-9.5409375 65.99828125 -9.8709375 65.00828125 -10.2109375 63.98828125 C-10.8709375 64.44203125 -11.5309375 64.89578125 -12.2109375 65.36328125 C-20.5601282 69.88575954 -29.71689065 70.19456447 -38.7109375 67.55078125 C-40.98248846 66.80677643 -43.07387055 66.05681472 -45.2109375 64.98828125 C-45.2109375 64.32828125 -45.2109375 63.66828125 -45.2109375 62.98828125 C-46.2009375 62.98828125 -47.1909375 62.98828125 -48.2109375 62.98828125 C-49.5625 61.37890625 -49.5625 61.37890625 -50.8359375 59.23828125 C-51.47402344 58.19414062 -51.47402344 58.19414062 -52.125 57.12890625 C-55.03796706 51.38679853 -55.24853312 44.08525806 -53.6796875 37.890625 C-52.15081072 34.10997862 -49.99262843 30.94943611 -47.2109375 27.98828125 C-46.5509375 27.98828125 -45.8909375 27.98828125 -45.2109375 27.98828125 C-45.2109375 27.32828125 -45.2109375 26.66828125 -45.2109375 25.98828125 C-35.23890671 20.41509039 -25.43432219 19.84554715 -14.2109375 20.98828125 C-13.2209375 21.31828125 -12.2309375 21.64828125 -11.2109375 21.98828125 C-11.32456012 20.50819715 -11.45216658 19.02918051 -11.5859375 17.55078125 C-11.69035156 16.31521484 -11.69035156 16.31521484 -11.796875 15.0546875 C-12.00183594 14.03181641 -12.00183594 14.03181641 -12.2109375 12.98828125 C-12.8709375 12.65828125 -13.5309375 12.32828125 -14.2109375 11.98828125 C-14.2109375 11.32828125 -14.2109375 10.66828125 -14.2109375 9.98828125 C-23.16722841 7.95200809 -31.64432389 8.02751893 -39.9921875 12.015625 C-42.2109375 12.98828125 -42.2109375 12.98828125 -47.2109375 13.98828125 C-47.2109375 9.03828125 -47.2109375 4.08828125 -47.2109375 -1.01171875 C-32.99372469 -10.08653543 -13.74904705 -9.91686585 0 0 Z M-35.2109375 37.98828125 C-37.66384097 41.66763646 -37.91054688 44.71289059 -37.2109375 48.98828125 C-34.80674163 52.37196432 -32.17840216 53.88108181 -28.2109375 54.98828125 C-22.0715968 55.69666672 -17.49297544 53.93589509 -12.2109375 50.98828125 C-9.88227521 49.09981942 -9.88227521 49.09981942 -10.015625 45.94921875 C-10.03882813 44.76585937 -10.06203125 43.5825 -10.0859375 42.36328125 C-10.10398437 41.17476563 -10.12203125 39.98625 -10.140625 38.76171875 C-10.16382813 37.84648437 -10.18703125 36.93125 -10.2109375 35.98828125 C-17.96194914 31.28499749 -28.03887388 33.25201282 -35.2109375 37.98828125 Z " fill="#000000" transform="translate(504.2109375,311.01171875)"/>
<path d="M0 0 C5.94 0 11.88 0 18 0 C18.78375 2.3925 19.5675 4.785 20.375 7.25 C23.00767556 15.19697824 25.76954947 23.0975357 28.57696533 30.98425293 C29.24340757 32.85647997 29.90760384 34.72950599 30.57177734 36.60253906 C30.98637207 37.76237305 31.4009668 38.92220703 31.828125 40.1171875 C32.3835498 41.67348877 32.3835498 41.67348877 32.95019531 43.26123047 C33.84647329 45.59947381 34.82955732 47.78938425 36 50 C37.95543284 44.70454211 39.86803714 39.39547522 41.71875 34.0625 C42.02224365 33.18883789 42.3257373 32.31517578 42.63842773 31.41503906 C43.24428219 29.6677452 43.84803604 27.91972125 44.44946289 26.17089844 C45.72476951 22.49474 47.01888826 18.85926092 48.578125 15.29296875 C49.96255643 12.08671684 51.10596434 8.88169564 52.1875 5.5625 C52.785625 3.726875 53.38375 1.89125 54 0 C59.61 0 65.22 0 71 0 C69.87599859 7.8680099 69.87599859 7.8680099 68.58203125 11.0234375 C68.30020996 11.72573486 68.01838867 12.42803223 67.72802734 13.15161133 C67.42590332 13.88532959 67.1237793 14.61904785 66.8125 15.375 C64.3657032 21.47937313 62.03048823 27.59908012 59.875 33.8125 C56.58679372 43.24671399 53.21562891 52.64345122 48.9921875 61.70703125 C47.53076148 65.08442131 46.29214045 68.55429213 45 72 C39.06 72 33.12 72 27 72 C26.0925 69.525 25.185 67.05 24.25 64.5 C23.69690881 63.0088519 23.14050203 61.51892086 22.578125 60.03125 C22.32450195 59.35642578 22.07087891 58.68160156 21.80957031 57.98632812 C20.71304149 55.29593052 19.39434129 52.74700424 18.0390625 50.1796875 C16.00701141 45.91696379 14.48770385 41.43151455 12.85546875 37.00390625 C10.51825923 30.67026707 8.10302456 24.36659773 5.6875 18.0625 C5.02016846 16.30993896 5.02016846 16.30993896 4.33935547 14.52197266 C3.71311279 12.88881104 3.71311279 12.88881104 3.07421875 11.22265625 C2.69869873 10.24047119 2.32317871 9.25828613 1.9362793 8.24633789 C1.19612852 6.06924759 1.19612852 6.06924759 0 5 C0 3.35 0 1.7 0 0 Z " fill="#000000" transform="translate(376,306)"/>
<path d="M0 0 C5.28 0 10.56 0 16 0 C16 32.01 16 64.02 16 97 C10.72 97 5.44 97 0 97 C0 64.99 0 32.98 0 0 Z " fill="#000000" transform="translate(527,281)"/>
<path d="M0 0 C12.87 0 25.74 0 39 0 C39 4.95 39 9.9 39 15 C31.41 15 23.82 15 16 15 C16 33.81 16 52.62 16 72 C10.72 72 5.44 72 0 72 C0 48.24 0 24.48 0 0 Z " fill="#000000" transform="translate(301,306)"/>
<path d="M0 0 C13.92914856 -0.63635704 25.85729886 0.68221138 37 10 C46.99407617 19.73160548 52.37321958 31.42830118 55 45 C42.21742911 43.94633906 27.80450778 42.52386633 17 35 C17 34.34 17 33.68 17 33 C16.40058594 32.731875 15.80117188 32.46375 15.18359375 32.1875 C7.88810476 28.22000688 3.82274294 19.33600913 1.24609375 11.79296875 C0.15134181 7.78908576 -0.06405324 4.12269924 0 0 Z " fill="#000000" transform="translate(46,293)"/>
<path d="M0 0 C1.65 0.33 3.3 0.66 5 1 C5 1.66 5 2.32 5 3 C5.66 3 6.32 3 7 3 C16.25174659 14.19948271 18.08111395 26.90418198 17 41 C16.23196389 45.0321896 14.84126616 48.34175879 13 52 C12.65662598 52.69109863 12.31325195 53.38219727 11.95947266 54.09423828 C4.66931147 68.66534426 4.66931147 68.66534426 2 70 C-1.47470005 66.77011966 -3.31826016 63.03686676 -5.5 58.875 C-5.89058594 58.153125 -6.28117187 57.43125 -6.68359375 56.6875 C-10.87181662 48.7623106 -13.59048814 41.344672 -13.5625 32.3125 C-13.5615332 31.53938477 -13.56056641 30.76626953 -13.55957031 29.96972656 C-13.25414605 19.80704792 -8.99094668 11.13404956 -3 3 C-2.34 3 -1.68 3 -1 3 C-0.67 2.01 -0.34 1.02 0 0 Z " fill="#000000" transform="translate(107,264)"/>
<path d="M0 0 C1.26749976 5.59596403 1.18403296 11.03631034 1.1875 16.75 C1.19974609 17.79671875 1.21199219 18.8434375 1.22460938 19.921875 C1.25021629 33.5788986 -1.80134784 42.86867486 -11 53.01953125 C-16.0295858 58 -16.0295858 58 -20 58 C-20 58.66 -20 59.32 -20 60 C-24.34604012 62.04519535 -27.13603617 63.20161508 -32 63 C-32.50921328 60.81462633 -33.00694437 58.62657569 -33.5 56.4375 C-33.7784375 55.21933594 -34.056875 54.00117188 -34.34375 52.74609375 C-36.16375391 42.35690479 -33.97209997 30.81515601 -28 22 C-22.73465889 15.00814174 -9.58013977 0 0 0 Z " fill="#000000" transform="translate(105,353)"/>
<path d="M0 0 C4.46300178 1.52415721 8.08562336 3.94533583 11.875 6.6875 C12.49197754 7.13158203 13.10895508 7.57566406 13.74462891 8.03320312 C18.2672396 11.34365383 22.29665456 14.76760521 26 19 C26 19.66 26 20.32 26 21 C26.66 21 27.32 21 28 21 C36.08774354 35.23072433 35.97195072 47.49047814 32 63 C24.49958194 62.52124991 19.15394741 59.1026316 13 55 C13 54.34 13 53.68 13 53 C12.40316406 52.75378906 11.80632812 52.50757813 11.19140625 52.25390625 C4.60062029 48.48270787 1.93263456 39.9241152 0 33 C-0.33 32.01 -0.66 31.02 -1 30 C-1.09261085 28.47873574 -1.13068177 26.95376663 -1.1328125 25.4296875 C-1.13410156 24.5325 -1.13539062 23.6353125 -1.13671875 22.7109375 C-1.13285156 21.77507812 -1.12898438 20.83921875 -1.125 19.875 C-1.12886719 18.96234375 -1.13273437 18.0496875 -1.13671875 17.109375 C-1.12848321 11.32802695 -0.73875987 5.73418379 0 0 Z " fill="#000000" transform="translate(113,353)"/>
<path d="M0 0 C-0.3125 1.9375 -0.3125 1.9375 -1 4 C-1.99 4.33 -2.98 4.66 -4 5 C-4.33 5.99 -4.66 6.98 -5 8 C-15.86271667 18.1945355 -26.94098921 25.6028682 -42.125 25.5625 C-43.03991211 25.56080811 -43.95482422 25.55911621 -44.89746094 25.55737305 C-52.90366882 25.34731196 -60.44346739 23.87509925 -67 19 C-68.15625 16.6640625 -68.15625 16.6640625 -68 14 C-66.48738799 11.71570992 -65.12834414 10.00225214 -63.25 8.0625 C-62.49988647 7.27190186 -62.49988647 7.27190186 -61.73461914 6.46533203 C-44.40226197 -11.08690313 -21.38167075 -6.94657967 0 0 Z " fill="#000000" transform="translate(99,345)"/>
<path d="M0 0 C-0.26122508 10.52024652 -3.49233855 22.26853293 -11 30 C-23.3043126 40.7174985 -38.74369739 45.31215943 -55 45 C-52.46663414 29.50522743 -44.00266797 14.92499861 -31.32421875 5.79296875 C-21.66975358 -0.35916061 -11.03317229 -0.40201842 0 0 Z " fill="#000000" transform="translate(172,293)"/>
<path d="M0 0 C0 0.66 0 1.32 0 2 C0.66 2 1.32 2 2 2 C3.32421875 3.35546875 3.32421875 3.35546875 4.6875 5.1875 C5.14511719 5.77917969 5.60273438 6.37085938 6.07421875 6.98046875 C7 9 7 9 7.0078125 11.53125 C5.54298976 15.11949796 3.68633245 15.73619248 0.1875 17.3125 C-10.68865358 21.86347393 -23.70528728 21.86413171 -34.875 18.25 C-42.12692888 15.00398785 -47.81403108 9.65064337 -53.56689453 4.28417969 C-55.10871665 2.85821585 -55.10871665 2.85821585 -57.40234375 1.2578125 C-57.92957031 0.84273438 -58.45679687 0.42765625 -59 0 C-59 -0.66 -59 -1.32 -59 -2 C-59.66 -2 -60.32 -2 -61 -2 C-61 -2.99 -61 -3.98 -61 -5 C-58.31425618 -5.81871381 -55.6266428 -6.63008988 -52.9375 -7.4375 C-51.80924805 -7.78264648 -51.80924805 -7.78264648 -50.65820312 -8.13476562 C-32.24410455 -13.63508078 -15.15460862 -11.99739849 0 0 Z " fill="#000000" transform="translate(180,350)"/>
<path d="M0 0 C5.61 0 11.22 0 17 0 C17 23.43 17 46.86 17 71 C14.01316593 72.49341703 11.25600226 72.13175178 7.9375 72.125 C6.66777344 72.12757813 5.39804687 72.13015625 4.08984375 72.1328125 C1 72 1 72 0 71 C-0.09432985 68.79132169 -0.11742431 66.57958479 -0.11352539 64.36889648 C-0.11367142 63.67624695 -0.11381744 62.98359741 -0.1139679 62.2699585 C-0.11326874 59.97030554 -0.10547628 57.67073263 -0.09765625 55.37109375 C-0.09579208 53.78068588 -0.09436817 52.19027743 -0.09336853 50.59986877 C-0.08954329 46.4060407 -0.07971295 42.21224705 -0.06866455 38.01843262 C-0.05845057 33.74211086 -0.05387094 29.46578356 -0.04882812 25.18945312 C-0.03809068 16.79295116 -0.02049384 8.39648382 0 0 Z " fill="#000000" transform="translate(350,306)"/>
<path d="M0 0 C5.28 0 10.56 0 16 0 C16 23.76 16 47.52 16 72 C10.72 72 5.44 72 0 72 C0 48.24 0 24.48 0 0 Z " fill="#000000" transform="translate(560,306)"/>
<path d="M0 0 C3.77155452 0.05943711 5.07250526 0.26495326 8.375 2.3125 C10.90315576 6.44182107 11.28288287 9.65446918 10.25 14.375 C8.3125 17.4375 8.3125 17.4375 5.25 19.375 C0.74406277 20.28759488 -2.63971742 19.93014129 -6.75 17.875 C-9.44510545 14.50611819 -10.20363512 11.67216179 -9.75 7.375 C-6.91662641 2.18048175 -5.79280748 0.22280029 0 0 Z " fill="#000000" transform="translate(567.75,278.625)"/>
<path d="M0 0 C2.98413262 2.47464656 3.77087133 4.28206349 4.9375 7.9375 C5.01578045 11.77324193 4.04546701 13.78569471 2 17 C-2.03485494 19.68990329 -5.26228652 19.77993882 -10 19 C-13.0625 17.0625 -13.0625 17.0625 -15 14 C-16.03288287 9.27946918 -15.65315576 6.06682107 -13.125 1.9375 C-8.75508541 -0.77184705 -5.01443946 -1.05032178 0 0 Z " fill="#000000" transform="translate(364,279)"/>
</svg>
